<?xml version="1.0" standalone="no"?>
<!DOCTYPE svg PUBLIC "-//W3C//DTD SVG 20010904//EN"
 "http://www.w3.org/TR/2001/REC-SVG-20010904/DTD/svg10.dtd">
<svg version="1.0" xmlns="http://www.w3.org/2000/svg"
 width="275.000000pt" height="274.000000pt" viewBox="0 0 275.000000 274.000000"
 preserveAspectRatio="xMidYMid meet">

<g transform="translate(0.000000,274.000000) scale(0.100000,-0.100000)"
fill="#000000" stroke="none">
<path d="M1173 2733 c9 -2 25 -2 35 0 9 3 1 5 -18 5 -19 0 -27 -2 -17 -5z"/>
<path d="M1533 2733 c9 -2 25 -2 35 0 9 3 1 5 -18 5 -19 0 -27 -2 -17 -5z"/>
<path d="M1075 2720 c-14 -7 -8 -8 20 -3 22 3 42 7 44 9 9 8 -45 2 -64 -6z"/>
<path d="M1670 2710 c81 -21 96 -23 88 -14 -8 8 -119 33 -143 33 -11 0 14 -9
55 -19z"/>
<path d="M975 2695 l-30 -14 30 6 c17 3 41 10 55 14 l25 7 -25 1 c-14 0 -38
-6 -55 -14z"/>
<path d="M875 2660 c-22 -11 -29 -17 -16 -14 38 10 88 33 71 33 -8 0 -33 -8
-55 -19z"/>
<path d="M1850 2658 c14 -6 62 -28 108 -49 45 -21 82 -36 82 -33 0 8 -183 94
-199 93 -10 0 -6 -5 9 -11z"/>
<path d="M1258 2648 c-571 -45 -1054 -486 -1153 -1052 -13 -75 -20 -94 -49
-126 -59 -66 -59 -134 0 -200 29 -32 36 -51 49 -126 63 -359 290 -687 605
-876 230 -137 488 -196 770 -175 573 42 1057 484 1156 1057 11 69 21 98 35
108 30 21 49 67 49 119 0 42 -6 55 -40 97 -29 34 -40 57 -40 81 0 96 -84 334
-168 475 -207 346 -593 591 -974 615 -51 4 -102 7 -113 9 -11 1 -68 -1 -127
-6z m387 -192 c138 -36 316 -126 428 -217 198 -160 336 -388 390 -641 l20 -98
-27 -51 c-33 -60 -32 -113 4 -161 25 -34 23 -65 -10 -198 -82 -323 -325 -610
-631 -741 -380 -164 -800 -113 -1132 137 -215 162 -381 437 -419 695 -11 72
-11 76 12 107 32 43 33 120 2 162 -28 38 -28 75 2 193 111 436 475 767 921
837 109 17 328 5 440 -24z m-1461 -1062 c21 -21 4 -54 -28 -54 -28 0 -40 24
-26 51 13 23 33 24 54 3z m2416 1 c20 -25 8 -50 -25 -50 -21 0 -31 5 -33 18
-4 21 14 47 33 47 7 0 18 -7 25 -15z m-2482 -55 c8 -13 23 -20 42 -20 19 0 34
7 42 20 9 14 24 20 50 20 21 0 38 -2 38 -5 0 -2 -8 -20 -17 -40 -22 -46 -88
-80 -135 -70 -47 11 -74 31 -92 70 -22 45 -21 45 22 45 26 0 41 -6 50 -20z
m2420 0 c7 -11 23 -20 37 -20 14 0 33 9 42 20 11 12 30 20 50 20 45 0 44 -31
0 -75 -43 -43 -92 -53 -142 -29 -36 17 -75 65 -75 92 0 21 73 15 88 -8z"/>
<path d="M1033 2359 c-19 -7 -23 -16 -23 -50 0 -51 20 -48 38 6 16 47 13 55
-15 44z"/>
<path d="M1471 2359 c-87 -15 -195 -83 -253 -159 -91 -121 -108 -191 -106
-430 0 -102 4 -164 7 -139 6 43 23 74 75 133 15 17 17 32 13 82 -6 60 -8 69
-42 150 -16 41 -16 41 13 105 17 35 42 78 56 94 l25 30 1 -97 c0 -54 4 -98 9
-98 5 0 17 12 27 28 21 33 124 142 134 142 4 0 1 -24 -7 -52 -24 -91 -41 -188
-32 -188 4 0 20 5 36 11 15 6 54 16 86 24 l57 13 -55 -61 c-30 -33 -55 -63
-55 -67 0 -4 46 -13 103 -20 109 -14 109 -12 7 -50 -30 -11 -66 -29 -80 -40
-14 -11 -18 -18 -8 -14 42 15 121 -68 105 -110 -6 -14 -9 -14 -28 5 -11 11
-27 18 -35 15 -9 -3 -12 -1 -9 4 3 6 -1 10 -9 10 -11 0 -13 -6 -6 -29 5 -17 4
-31 -1 -33 -4 -2 -10 -12 -11 -23 -4 -23 -13 -29 -31 -22 -9 4 -9 6 1 6 6 1
12 10 12 22 0 13 -4 18 -12 13 -7 -4 -8 -3 -4 5 4 6 2 18 -4 26 -7 8 -9 23 -6
32 17 43 -25 -16 -64 -92 -48 -92 -84 -135 -116 -135 -31 0 -34 18 -12 63 27
55 16 57 -13 2 -19 -36 -22 -48 -12 -63 9 -15 8 -22 -6 -34 -9 -8 -22 -13 -29
-10 -7 2 -12 0 -12 -5 0 -13 -54 -10 -69 5 -10 9 -12 33 -7 95 4 57 2 74 -4
57 -7 -19 -8 -13 -4 24 5 47 3 53 -50 131 -74 109 -78 135 -70 408 4 119 4
217 0 217 -4 0 -35 -14 -69 -31 -387 -196 -621 -611 -578 -1028 11 -97 37
-218 63 -280 l14 -35 23 65 c31 86 104 193 158 230 104 72 263 108 398 91 39
-5 76 -7 83 -4 7 2 20 -2 28 -9 10 -8 41 -14 75 -14 33 0 59 -4 59 -9 0 -10
133 1 164 15 15 7 9 7 -21 3 -24 -3 -43 -3 -43 1 0 13 37 54 43 48 4 -3 9 2
13 11 3 9 12 16 20 16 8 0 14 5 14 10 0 6 4 10 9 10 6 0 25 14 43 30 18 17 36
30 41 30 4 0 20 11 35 24 15 14 49 44 75 67 27 24 70 70 96 103 47 61 81 114
42 66 -20 -24 -21 -24 -21 -3 0 11 8 48 19 82 10 33 17 63 15 66 -2 3 -1 3 3
0 3 -3 11 -1 17 4 15 13 12 -69 -3 -98 -7 -11 -9 -21 -6 -21 8 0 55 102 60
129 2 11 8 28 14 39 17 33 39 150 40 220 1 40 0 42 -30 42 -43 0 -121 -36
-144 -68 -14 -19 -20 -42 -20 -82 1 -61 21 -123 38 -113 5 3 7 2 4 -4 -4 -6
-2 -23 4 -39 9 -23 7 -37 -7 -69 -9 -22 -19 -34 -21 -27 -14 39 -36 -14 -48
-119 -5 -44 -12 -62 -36 -85 -16 -15 -29 -22 -29 -15 0 7 -4 10 -8 7 -4 -2 -6
11 -4 30 6 50 -5 83 -38 114 l-30 28 23 14 c21 14 45 24 112 48 41 15 22 25
-80 40 -44 7 -84 16 -89 21 -5 4 17 35 49 68 65 68 64 69 -51 46 -41 -9 -78
-13 -83 -10 -10 6 7 87 37 178 11 33 15 57 9 57 -14 0 -74 -46 -115 -87 -51
-51 -65 -45 -60 25 5 75 33 113 108 146 57 26 127 35 115 16 -8 -13 -4 -13 41
6 38 16 129 15 192 -2 l23 -7 -24 -26 c-27 -29 -57 -83 -57 -103 0 -7 8 3 18
22 14 30 23 35 57 38 52 5 101 -5 120 -24 13 -14 15 -14 15 3 0 49 -72 92
-199 119 -73 15 -139 16 -220 3z m-296 -472 c20 -38 26 -61 22 -79 -8 -29 -53
-88 -68 -88 -10 0 -13 203 -2 213 13 14 21 6 48 -46z m555 -153 c0 -19 -8 -38
-21 -50 l-22 -19 7 54 c4 30 10 59 13 64 9 14 23 -15 23 -49z"/>
<path d="M2166 1949 c-3 -19 -17 -110 -31 -204 -15 -93 -33 -198 -41 -233 -43
-192 -178 -336 -386 -411 -217 -79 -483 -95 -802 -50 -155 23 -299 -4 -373
-69 -31 -27 -73 -92 -73 -112 0 -26 75 -134 143 -206 l58 -63 41 45 c162 176
474 274 772 244 106 -11 221 -37 288 -65 21 -8 39 -15 40 -15 2 0 2 29 0 64
-8 158 124 287 312 303 68 5 80 3 130 -21 30 -15 70 -43 89 -63 l35 -35 19 78
c13 60 18 119 18 239 0 193 -19 282 -96 444 l-50 105 -37 -75 c-23 -46 -44
-75 -56 -77 -10 -2 -16 0 -13 5 7 12 29 195 23 200 -3 3 -7 -10 -10 -28z m-19
-551 c40 -43 66 -94 58 -117 -5 -18 -7 -18 -45 0 -21 10 -60 19 -85 19 -26 0
-45 3 -43 8 2 4 16 33 32 65 15 31 33 57 40 57 7 0 26 -15 43 -32z m3 -130
c18 -13 45 -38 59 -57 l26 -34 -25 8 c-46 15 -154 7 -216 -16 -43 -16 -74 -38
-117 -81 -55 -56 -63 -59 -68 -18 -4 37 5 50 58 85 31 21 77 57 102 80 25 23
53 45 61 48 35 13 88 6 120 -15z"/>
<path d="M1021 1814 c0 -11 3 -14 6 -6 3 7 2 16 -1 19 -3 4 -6 -2 -5 -13z"/>
<path d="M1430 1350 c-8 -5 -10 -10 -5 -10 6 0 17 5 25 10 8 5 11 10 5 10 -5
0 -17 -5 -25 -10z"/>
<path d="M2120 1015 c-106 -30 -223 -120 -253 -195 -18 -46 -6 -53 35 -20 17
13 24 27 21 42 -8 44 83 119 178 149 67 21 145 24 198 9 43 -12 54 -5 16 10
-49 19 -137 21 -195 5z"/>
<path d="M1064 660 c-4 -16 -7 -33 -8 -37 0 -5 51 -10 114 -14 l115 -5 -118
-2 c-83 -1 -119 -6 -122 -14 -3 -7 -11 -41 -19 -75 l-14 -63 38 0 c36 0 38 2
44 40 l6 40 108 0 c94 0 110 2 124 19 33 38 47 66 50 101 l3 35 -158 3 -157 3
-6 -31z"/>
<path d="M1405 680 c-7 -12 -55 -199 -55 -217 0 -8 13 -13 34 -13 31 0 35 3
43 38 l9 37 84 0 85 0 -3 -37 c-3 -37 -3 -38 31 -38 32 0 35 3 45 42 10 40 9
45 -16 71 -15 16 -36 33 -47 37 -14 6 -3 9 36 9 50 1 57 4 63 24 14 54 11 57
-67 57 l-73 0 -44 -45 c-24 -25 -50 -45 -58 -45 -10 0 -12 11 -6 45 6 45 6 45
-24 45 -17 0 -34 -5 -37 -10z"/>
<path d="M144 1379 c-10 -17 13 -36 27 -22 12 12 4 33 -11 33 -5 0 -12 -5 -16
-11z"/>
<path d="M2562 1373 c4 -21 33 -25 33 -3 0 8 -8 16 -18 18 -14 3 -18 -1 -15
-15z"/>
<path d="M735 2597 c-166 -88 -299 -192 -399 -313 -39 -48 -34 -43 30 22 127
131 226 206 379 286 50 26 86 47 80 47 -5 0 -46 -19 -90 -42z"/>
<path d="M2070 2557 c0 -2 26 -21 58 -42 239 -158 391 -348 530 -665 11 -24
11 -24 5 5 -9 43 -94 208 -151 293 -73 108 -205 247 -307 322 -86 64 -135 95
-135 87z"/>
<path d="M246 2173 c-49 -67 -122 -193 -130 -223 -4 -14 12 11 36 55 24 44 64
111 90 148 54 76 56 92 4 20z"/>
<path d="M84 1884 c-8 -20 -13 -41 -11 -47 2 -7 11 10 20 36 19 55 13 63 -9
11z"/>
<path d="M2676 1805 c20 -70 54 -226 56 -255 1 -34 1 -34 5 -5 5 36 -30 201
-52 248 -9 18 -13 23 -9 12z"/>
<path d="M41 1759 c-6 -18 -11 -41 -10 -53 0 -12 7 1 14 29 16 56 13 72 -4 24z"/>
<path d="M21 1664 c0 -11 3 -14 6 -6 3 7 2 16 -1 19 -3 4 -6 -2 -5 -13z"/>
<path d="M6 1609 c-3 -17 -5 -46 -5 -63 1 -18 5 -7 10 28 9 63 6 88 -5 35z"/>
<path d="M2742 1379 c-1 -69 -4 -148 -7 -175 l-4 -49 10 48 c5 26 8 105 6 175
l-3 127 -2 -126z"/>
<path d="M2 1190 c0 -19 2 -27 5 -17 2 9 2 25 0 35 -3 9 -5 1 -5 -18z"/>
<path d="M12 1120 c0 -14 2 -19 5 -12 2 6 2 18 0 25 -3 6 -5 1 -5 -13z"/>
<path d="M2702 1042 c-13 -53 -26 -104 -29 -112 -4 -10 -2 -12 5 -5 12 12 56
189 51 204 -2 6 -15 -33 -27 -87z"/>
<path d="M26 1055 c6 -45 24 -108 29 -103 2 2 -5 35 -15 73 -12 42 -18 54 -14
30z"/>
<path d="M71 903 c-1 -18 19 -67 25 -61 3 3 -2 21 -10 39 -8 19 -15 29 -15 22z"/>
<path d="M2651 879 c-6 -18 -9 -34 -7 -36 2 -2 9 10 15 28 6 18 9 34 7 36 -2
2 -9 -10 -15 -28z"/>
<path d="M110 806 c0 -17 63 -132 118 -214 49 -73 222 -262 277 -302 79 -58
123 -89 143 -99 40 -21 23 -5 -35 34 -193 127 -349 300 -460 510 -23 44 -43
76 -43 71z"/>
<path d="M2594 748 c-16 -34 -55 -99 -87 -146 -32 -47 -51 -80 -43 -73 36 30
175 265 164 277 -3 2 -18 -24 -34 -58z"/>
<path d="M2390 450 c-126 -146 -354 -301 -537 -365 -29 -11 -53 -22 -53 -26 0
-20 236 93 340 163 100 67 224 177 282 251 47 58 26 43 -32 -23z"/>
<path d="M680 175 c0 -7 121 -67 126 -63 2 2 -26 18 -61 36 -36 17 -65 30 -65
27z"/>
<path d="M825 101 c13 -11 77 -32 82 -27 2 2 -17 11 -44 20 -26 9 -43 12 -38
7z"/>
<path d="M995 40 c11 -5 29 -8 40 -8 16 0 15 2 -5 8 -34 11 -60 11 -35 0z"/>
<path d="M1665 29 c-44 -12 -55 -17 -30 -14 42 5 141 33 115 33 -8 0 -46 -9
-85 -19z"/>
<path d="M1068 23 c7 -3 16 -2 19 1 4 3 -2 6 -13 5 -11 0 -14 -3 -6 -6z"/>
<path d="M1108 13 c6 -2 18 -2 25 0 6 3 1 5 -13 5 -14 0 -19 -2 -12 -5z"/>
<path d="M1173 3 c9 -2 25 -2 35 0 9 3 1 5 -18 5 -19 0 -27 -2 -17 -5z"/>
<path d="M1533 3 c9 -2 25 -2 35 0 9 3 1 5 -18 5 -19 0 -27 -2 -17 -5z"/>
</g>
</svg>
